<mxfile host="Electron" agent="Mozilla/5.0 (Windows NT 10.0; Win64; x64) AppleWebKit/537.36 (KHTML, like Gecko) draw.io/24.7.17 Chrome/128.0.6613.36 Electron/32.0.1 Safari/537.36" version="24.7.17">
  <diagram id="R2lEEEUBdFMjLlhIrx00" name="Page-1">
    <mxGraphModel dx="1434" dy="844" grid="1" gridSize="10" guides="1" tooltips="1" connect="1" arrows="1" fold="1" page="1" pageScale="1" pageWidth="850" pageHeight="1100" math="0" shadow="0" extFonts="Permanent Marker^https://fonts.googleapis.com/css?family=Permanent+Marker">
      <root>
        <mxCell id="0" />
        <mxCell id="1" parent="0" />
        <mxCell id="0iyAD0FxAo9nARMY-2Vh-1" value="" style="whiteSpace=wrap;html=1;aspect=fixed;" parent="1" vertex="1">
          <mxGeometry x="140" y="140" width="320" height="320" as="geometry" />
        </mxCell>
        <mxCell id="0iyAD0FxAo9nARMY-2Vh-2" value="" style="rounded=0;whiteSpace=wrap;html=1;" parent="1" vertex="1">
          <mxGeometry x="140" y="420" width="320" height="30" as="geometry" />
        </mxCell>
        <mxCell id="0iyAD0FxAo9nARMY-2Vh-4" value="base text -- application setups" style="text;html=1;align=center;verticalAlign=middle;whiteSpace=wrap;rounded=0;" parent="1" vertex="1">
          <mxGeometry x="160" y="420" width="240" height="30" as="geometry" />
        </mxCell>
        <mxCell id="0iyAD0FxAo9nARMY-2Vh-6" value="" style="rounded=0;whiteSpace=wrap;html=1;" parent="1" vertex="1">
          <mxGeometry x="150" y="180" width="300" height="60" as="geometry" />
        </mxCell>
        <mxCell id="0iyAD0FxAo9nARMY-2Vh-7" value="" style="rounded=0;whiteSpace=wrap;html=1;" parent="1" vertex="1">
          <mxGeometry x="165" y="190" width="275" height="10" as="geometry" />
        </mxCell>
        <mxCell id="0iyAD0FxAo9nARMY-2Vh-8" value="" style="rounded=0;whiteSpace=wrap;html=1;" parent="1" vertex="1">
          <mxGeometry x="165" y="200" width="275" height="10" as="geometry" />
        </mxCell>
        <mxCell id="0iyAD0FxAo9nARMY-2Vh-9" value="" style="rounded=0;whiteSpace=wrap;html=1;" parent="1" vertex="1">
          <mxGeometry x="165" y="210" width="275" height="10" as="geometry" />
        </mxCell>
        <mxCell id="0iyAD0FxAo9nARMY-2Vh-10" value="System de logs" style="text;html=1;align=center;verticalAlign=middle;whiteSpace=wrap;rounded=0;" parent="1" vertex="1">
          <mxGeometry x="510" y="190" width="100" height="30" as="geometry" />
        </mxCell>
        <mxCell id="0iyAD0FxAo9nARMY-2Vh-11" value="" style="endArrow=classic;html=1;rounded=0;" parent="1" source="0iyAD0FxAo9nARMY-2Vh-10" target="0iyAD0FxAo9nARMY-2Vh-6" edge="1">
          <mxGeometry width="50" height="50" relative="1" as="geometry">
            <mxPoint x="410" y="290" as="sourcePoint" />
            <mxPoint x="470" y="210" as="targetPoint" />
          </mxGeometry>
        </mxCell>
        <mxCell id="0iyAD0FxAo9nARMY-2Vh-12" value="" style="rounded=0;whiteSpace=wrap;html=1;" parent="1" vertex="1">
          <mxGeometry x="150" y="140" width="310" height="20" as="geometry" />
        </mxCell>
        <mxCell id="0iyAD0FxAo9nARMY-2Vh-13" value="Log dynamique&lt;div&gt;&lt;br&gt;&lt;/div&gt;" style="text;html=1;align=center;verticalAlign=middle;whiteSpace=wrap;rounded=0;" parent="1" vertex="1">
          <mxGeometry x="150" y="140" width="90" height="30" as="geometry" />
        </mxCell>
      </root>
    </mxGraphModel>
  </diagram>
</mxfile>
